<?xml version="1.0" encoding="UTF-8" standalone="no"?>
<!-- Created with Inkscape (http://www.inkscape.org/) -->

<svg
   width="51.569214mm"
   height="51.569206mm"
   viewBox="0 0 51.569214 51.569207"
   version="1.1"
   id="svg1"
   sodipodi:docname="logotip.svg"
   inkscape:version="1.4 (86a8ad7, 2024-10-11)"
   xmlns:inkscape="http://www.inkscape.org/namespaces/inkscape"
   xmlns:sodipodi="http://sodipodi.sourceforge.net/DTD/sodipodi-0.dtd"
   xmlns="http://www.w3.org/2000/svg"
   xmlns:svg="http://www.w3.org/2000/svg">
  <sodipodi:namedview
     id="namedview1"
     pagecolor="#ffffff"
     bordercolor="#000000"
     borderopacity="0.25"
     inkscape:showpageshadow="2"
     inkscape:pageopacity="0.0"
     inkscape:pagecheckerboard="0"
     inkscape:deskcolor="#d1d1d1"
     inkscape:document-units="mm"
     inkscape:zoom="3.1502162"
     inkscape:cx="191.89159"
     inkscape:cy="243.31663"
     inkscape:window-width="1920"
     inkscape:window-height="1017"
     inkscape:window-x="1912"
     inkscape:window-y="-8"
     inkscape:window-maximized="1"
     inkscape:current-layer="svg1">
    <inkscape:page
       x="0"
       y="0"
       width="51.569214"
       height="51.569206"
       id="page2"
       margin="0"
       bleed="0" />
  </sodipodi:namedview>
  <defs
     id="defs1" />
  <circle
     style="fill:#ffffff;stroke-width:0.214886"
     id="path2"
     cx="25.784603"
     cy="25.784603"
     r="25.784605"
     inkscape:export-filename="logo"
     inkscape:export-xdpi="197.01678"
     inkscape:export-ydpi="197.01678" />
  <path
     id="rect4-5-3"
     style="fill:#333333;fill-opacity:1;stroke-width:0.0698107"
     d="m 25.170125,19.323705 -0.02398,4.954313 c -0.328363,0.158258 -0.603354,0.382934 -0.799474,0.653189 -2.801853,-0.0087 -5.603663,0.01027 -8.405501,0.01972 0,0 -1.33532,0.01988 -1.85684,0.178009 -0.405551,0.122965 -0.64338,0.281041 -0.807858,0.544213 -0.117118,0.187386 -0.136195,0.516188 -0.133136,0.771863 -3.82e-4,-9.5e-5 -5.73e-4,-6.7e-5 -8.27e-4,-1.65e-4 l 0.03452,1.957433 a 1.9776489,1.9776489 0 0 0 -0.874262,1.638068 1.9776489,1.9776489 0 0 0 1.977649,1.97765 1.9776489,1.9776489 0 0 0 1.977649,-1.97765 1.9776489,1.9776489 0 0 0 -0.863742,-1.633631 c -0.0054,-0.276003 -0.01183,-0.514305 -0.01183,-0.973375 0,-0.423516 0.492658,-0.577043 0.898916,-0.651217 2.674369,-0.01772 5.34856,-3.18e-4 8.022858,0.01431 0.194074,0.294034 0.479366,0.539363 0.826266,0.710391 -0.02503,0.629111 -0.02338,0.893011 -0.01644,1.111934 a 1.9776489,1.9776489 0 0 0 -0.77712,1.565253 1.9776489,1.9776489 0 0 0 1.977649,1.977649 1.9776489,1.9776489 0 0 0 1.977649,-1.977649 1.9776489,1.9776489 0 0 0 -0.86818,-1.636755 l 0.04372,-1.063117 c 0.33064,-0.173369 0.601407,-0.415288 0.785667,-0.702006 l 8.319537,0.02236 c 0.406257,0.07417 0.898918,0.227701 0.898918,0.651217 0,0.379378 -0.0059,0.559509 -0.0099,0.804408 a 1.9776489,1.9776489 0 0 0 -0.922586,1.671433 1.9776489,1.9776489 0 0 0 1.474856,1.909437 c 0.163114,0.05566 0.341216,0.08743 0.528436,0.08744 0.257212,10e-6 0.494957,-0.0619 0.701841,-0.162885 a 1.9776489,1.9776489 0 0 0 1.250166,-1.833995 1.9776489,1.9776489 0 0 0 -0.815747,-1.599769 l 0.03287,-1.864567 c -2.49e-4,9.8e-5 -3.18e-4,7e-5 -6.37e-4,1.65e-4 0.0032,-0.255675 -0.01603,-0.584477 -0.133136,-0.771863 -0.164476,-0.263172 -0.402307,-0.421248 -0.807859,-0.544213 -0.521522,-0.158137 -1.856841,-0.17801 -1.856841,-0.17801 l -8.698234,-0.0291 c -0.205881,-0.290397 -0.502071,-0.529224 -0.857467,-0.691318 l 0.01396,-4.645963 z M 8.7157958,32.121717 a 0.56887231,0.58155419 0 0 0 -0.56887,0.581526 v 7.377886 a 0.56887231,0.58155419 0 0 0 0.56887,0.581525 h 4.8012892 l 0.0026,1.397769 H 12.00341 a 0.67780371,0.25414021 0 0 0 -0.677844,0.254107 v 0.984717 a 0.67780371,0.25414021 0 0 0 0.677844,0.25411 h 4.604379 a 0.67780371,0.25414021 0 0 0 0.677844,-0.25411 V 42.31453 A 0.67780371,0.25414021 0 0 0 16.607789,42.060423 H 15.01229 l -0.0026,-1.397769 h 5.073972 a 0.56887231,0.58155419 0 0 0 0.56887,-0.581525 v -7.377886 a 0.56887231,0.58155419 0 0 0 -0.56887,-0.581526 z m 23.8481602,0.03994 a 0.56887231,0.58155419 0 0 0 -0.568873,0.581525 v 7.377887 a 0.56887231,0.58155419 0 0 0 0.568873,0.581528 h 4.801287 l 0.0025,1.397765 h -1.516439 a 0.67780371,0.25414021 0 0 0 -0.677681,0.254111 v 0.984713 a 0.67780371,0.25414021 0 0 0 0.677681,0.254111 h 4.604544 a 0.67780371,0.25414021 0 0 0 0.677842,-0.254111 v -0.984713 a 0.67780371,0.25414021 0 0 0 -0.677797,-0.254111 h -1.595502 l -0.0025,-1.397765 h 5.073804 a 0.56887231,0.58155419 0 0 0 0.56887,-0.581528 v -7.377887 a 0.56887231,0.58155419 0 0 0 -0.56887,-0.581525 z M 9.4866718,32.717378 h 9.7293032 a 0.48688436,0.48688436 0 0 1 0.486851,0.486852 v 6.176865 a 0.48688436,0.48688436 0 0 1 -0.486851,0.486853 H 9.4866718 A 0.48688436,0.48688436 0 0 1 8.9996558,39.381095 V 33.20423 a 0.48688436,0.48688436 0 0 1 0.487016,-0.486852 z m 23.8479922,0.03994 h 9.729469 a 0.48688436,0.48688436 0 0 1 0.486852,0.48685 v 6.176865 a 0.48688436,0.48688436 0 0 1 -0.486852,0.486852 h -9.729469 a 0.48688436,0.48688436 0 0 1 -0.486849,-0.48685 V 33.24417 a 0.48688436,0.48688436 0 0 1 0.486849,-0.48685 z m -9.520721,0.590072 a 0.37086,0.39190355 0 0 0 -0.370809,0.391849 v 7.831371 a 0.37086,0.39190355 0 0 0 0.370809,0.391846 h 4.704971 A 0.37086,0.39190355 0 0 0 28.889723,41.57061 V 33.739239 A 0.37086,0.39190355 0 0 0 28.518914,33.34739 Z m 0.416831,0.557693 h 3.938861 a 0.31048857,0.30654911 0 0 1 0.310488,0.306543 v 6.125749 a 0.31048857,0.30654911 0 0 1 -0.310488,0.30654 h -3.938861 a 0.31048857,0.30654911 0 0 1 -0.310487,-0.30654 v -6.125749 a 0.31048857,0.30654911 0 0 1 0.310487,-0.306543 z m 1.773507,7.03354 h 0.633139 a 0.04991309,0.03559791 0 0 1 0.04997,0.03567 v 0.711374 a 0.04991309,0.03559791 0 0 1 -0.04997,0.0355 h -0.633139 a 0.04991309,0.03559791 0 0 1 -0.04997,-0.0355 v -0.711374 a 0.04991309,0.03559791 0 0 1 0.04997,-0.03567 z" />
  <path
     id="path1"
     style="fill:#5caeff;fill-opacity:1;stroke-width:0.0687356"
     d="m 25.896686,2.165249 c -5.483656,-0.04696 -7.153913,3.818066 -7.641857,7.827428 -3.790326,0.56523 -6.277293,2.106202 -6.277293,6.30836 0,6.705555 6.408795,6.461875 14.266619,6.461875 7.857821,0 14.18904,0.24368 14.18904,-6.461875 0,-4.371544 -2.724821,-5.86265 -6.798167,-6.37164 -0.50302,-3.936292 -2.409696,-7.718518 -7.738342,-7.764148 z" />
</svg>
